# xmcd CD database file
#
# Track frame offsets:
#	150
#	14540
#	26122
#	39052
#	53054
#	73151
#	90296
#	105360
#	120038
#	135531
#	149863
#
# Disc length: 2148 seconds
#
# Revision: 2
# Processed by: cddbd v1.5.2PL0 Copyright (c) Steve Scherf et al.
# Submitted via: CDex 1.70beta3
#
DISCID=8908620b
DTITLE=naomi and goro - Bossa Nova Songbook 2
DYEAR=2009
DGENRE=Jazz
TTITLE0=Samba do Aviao
TTITLE1=Seu Encanto
TTITLE2=Rosinha
TTITLE3=Coracao Vagabundo
TTITLE4=Super Boots
TTITLE5=Pica‐Pau
TTITLE6=Dolphin
TTITLE7=Olha Pro Ceu
TTITLE8=Chovendo na Roseira
TTITLE9=Triste
TTITLE10=Minha Saudade
EXTD=YEAR: 2009
EXTT0=
EXTT1=
EXTT2=
EXTT3=
EXTT4=
EXTT5=
EXTT6=
EXTT7=
EXTT8=
EXTT9=
EXTT10=
PLAYORDER=
